<mxfile host="app.diagrams.net" modified="2021-06-07T14:29:24.968Z" agent="5.0 (Windows NT 10.0; Win64; x64) AppleWebKit/537.36 (KHTML, like Gecko) Chrome/91.0.4472.77 Safari/537.36" etag="DZ3Gn_1afjIBYmNNuThO" version="14.6.11" type="github">
  <diagram id="RmCkacpN2TYLpkS6w7RO" name="Seite-1">
    <mxGraphModel dx="2310" dy="827" grid="1" gridSize="10" guides="1" tooltips="1" connect="1" arrows="1" fold="1" page="1" pageScale="1" pageWidth="827" pageHeight="1169" math="0" shadow="0">
      <root>
        <mxCell id="0" />
        <mxCell id="1" parent="0" />
        <mxCell id="iKKJlmc9YYCkpeSJBuOX-5" value="Map" style="swimlane;fontStyle=1;align=center;verticalAlign=top;childLayout=stackLayout;horizontal=1;startSize=26;horizontalStack=0;resizeParent=1;resizeParentMax=0;resizeLast=0;collapsible=1;marginBottom=0;" parent="1" vertex="1">
          <mxGeometry x="404" y="201" width="170" height="128" as="geometry" />
        </mxCell>
        <mxCell id="iKKJlmc9YYCkpeSJBuOX-8" value="&#xa;+ setCenter(Geo.Point): void" style="text;strokeColor=none;fillColor=none;align=left;verticalAlign=top;spacingLeft=4;spacingRight=4;overflow=hidden;rotatable=0;points=[[0,0.5],[1,0.5]];portConstraint=eastwest;" parent="iKKJlmc9YYCkpeSJBuOX-5" vertex="1">
          <mxGeometry y="26" width="170" height="50" as="geometry" />
        </mxCell>
        <mxCell id="iKKJlmc9YYCkpeSJBuOX-6" value="+ addObject(obj): void" style="text;strokeColor=none;fillColor=none;align=left;verticalAlign=top;spacingLeft=4;spacingRight=4;overflow=hidden;rotatable=0;points=[[0,0.5],[1,0.5]];portConstraint=eastwest;" parent="iKKJlmc9YYCkpeSJBuOX-5" vertex="1">
          <mxGeometry y="76" width="170" height="44" as="geometry" />
        </mxCell>
        <mxCell id="iKKJlmc9YYCkpeSJBuOX-7" value="" style="line;strokeWidth=1;fillColor=none;align=left;verticalAlign=middle;spacingTop=-1;spacingLeft=3;spacingRight=3;rotatable=0;labelPosition=right;points=[];portConstraint=eastwest;" parent="iKKJlmc9YYCkpeSJBuOX-5" vertex="1">
          <mxGeometry y="120" width="170" height="8" as="geometry" />
        </mxCell>
        <mxCell id="iKKJlmc9YYCkpeSJBuOX-9" value="Marker" style="swimlane;fontStyle=1;align=center;verticalAlign=top;childLayout=stackLayout;horizontal=1;startSize=26;horizontalStack=0;resizeParent=1;resizeParentMax=0;resizeLast=0;collapsible=1;marginBottom=0;" parent="1" vertex="1">
          <mxGeometry x="414" y="392.5" width="160" height="131" as="geometry" />
        </mxCell>
        <mxCell id="iKKJlmc9YYCkpeSJBuOX-10" value="- coords: Geo.PointÂ &#xa;- icon: Icon" style="text;strokeColor=none;fillColor=none;align=left;verticalAlign=top;spacingLeft=4;spacingRight=4;overflow=hidden;rotatable=0;points=[[0,0.5],[1,0.5]];portConstraint=eastwest;" parent="iKKJlmc9YYCkpeSJBuOX-9" vertex="1">
          <mxGeometry y="26" width="160" height="58" as="geometry" />
        </mxCell>
        <mxCell id="iKKJlmc9YYCkpeSJBuOX-11" value="" style="line;strokeWidth=1;fillColor=none;align=left;verticalAlign=middle;spacingTop=-1;spacingLeft=3;spacingRight=3;rotatable=0;labelPosition=right;points=[];portConstraint=eastwest;" parent="iKKJlmc9YYCkpeSJBuOX-9" vertex="1">
          <mxGeometry y="84" width="160" height="21" as="geometry" />
        </mxCell>
        <mxCell id="iKKJlmc9YYCkpeSJBuOX-12" value="+ setData(String): void" style="text;strokeColor=none;fillColor=none;align=left;verticalAlign=top;spacingLeft=4;spacingRight=4;overflow=hidden;rotatable=0;points=[[0,0.5],[1,0.5]];portConstraint=eastwest;" parent="iKKJlmc9YYCkpeSJBuOX-9" vertex="1">
          <mxGeometry y="105" width="160" height="26" as="geometry" />
        </mxCell>
        <mxCell id="iKKJlmc9YYCkpeSJBuOX-13" value="Icon" style="swimlane;fontStyle=1;align=center;verticalAlign=top;childLayout=stackLayout;horizontal=1;startSize=26;horizontalStack=0;resizeParent=1;resizeParentMax=0;resizeLast=0;collapsible=1;marginBottom=0;" parent="1" vertex="1">
          <mxGeometry x="210" y="392.5" width="160" height="86" as="geometry" />
        </mxCell>
        <mxCell id="eVHg-SDSR93NSboe7xZ6-215" value="Extends" style="endArrow=block;endSize=16;endFill=0;html=1;entryX=0.25;entryY=1;entryDx=0;entryDy=0;" edge="1" parent="iKKJlmc9YYCkpeSJBuOX-13" target="iKKJlmc9YYCkpeSJBuOX-5">
          <mxGeometry width="160" relative="1" as="geometry">
            <mxPoint x="90" as="sourcePoint" />
            <mxPoint x="250" as="targetPoint" />
          </mxGeometry>
        </mxCell>
        <mxCell id="iKKJlmc9YYCkpeSJBuOX-14" value="- image: String" style="text;strokeColor=none;fillColor=none;align=left;verticalAlign=top;spacingLeft=4;spacingRight=4;overflow=hidden;rotatable=0;points=[[0,0.5],[1,0.5]];portConstraint=eastwest;" parent="iKKJlmc9YYCkpeSJBuOX-13" vertex="1">
          <mxGeometry y="26" width="160" height="26" as="geometry" />
        </mxCell>
        <mxCell id="iKKJlmc9YYCkpeSJBuOX-15" value="" style="line;strokeWidth=1;fillColor=none;align=left;verticalAlign=middle;spacingTop=-1;spacingLeft=3;spacingRight=3;rotatable=0;labelPosition=right;points=[];portConstraint=eastwest;" parent="iKKJlmc9YYCkpeSJBuOX-13" vertex="1">
          <mxGeometry y="52" width="160" height="8" as="geometry" />
        </mxCell>
        <mxCell id="iKKJlmc9YYCkpeSJBuOX-16" value="+ method(type): type" style="text;strokeColor=none;fillColor=none;align=left;verticalAlign=top;spacingLeft=4;spacingRight=4;overflow=hidden;rotatable=0;points=[[0,0.5],[1,0.5]];portConstraint=eastwest;" parent="iKKJlmc9YYCkpeSJBuOX-13" vertex="1">
          <mxGeometry y="60" width="160" height="26" as="geometry" />
        </mxCell>
        <mxCell id="augDifIEVUEMAhJTvY_Y-25" value="Book" style="swimlane;fontStyle=1;align=center;verticalAlign=top;childLayout=stackLayout;horizontal=1;startSize=26;horizontalStack=0;resizeParent=1;resizeParentMax=0;resizeLast=0;collapsible=1;marginBottom=0;" parent="1" vertex="1">
          <mxGeometry x="-10" y="181" width="160" height="198" as="geometry" />
        </mxCell>
        <mxCell id="augDifIEVUEMAhJTvY_Y-26" value="- book_id: int&#xa;- author: String&#xa;- isbn: String&#xa;- genre: String&#xa;- language:String&#xa;- for_age: String&#xa;- tags: String&#xa;- publisher: String&#xa;- condition: String&#xa;- date: Date" style="text;strokeColor=none;fillColor=none;align=left;verticalAlign=top;spacingLeft=4;spacingRight=4;overflow=hidden;rotatable=0;points=[[0,0.5],[1,0.5]];portConstraint=eastwest;" parent="augDifIEVUEMAhJTvY_Y-25" vertex="1">
          <mxGeometry y="26" width="160" height="164" as="geometry" />
        </mxCell>
        <mxCell id="augDifIEVUEMAhJTvY_Y-27" value="" style="line;strokeWidth=1;fillColor=none;align=left;verticalAlign=middle;spacingTop=-1;spacingLeft=3;spacingRight=3;rotatable=0;labelPosition=right;points=[];portConstraint=eastwest;" parent="augDifIEVUEMAhJTvY_Y-25" vertex="1">
          <mxGeometry y="190" width="160" height="8" as="geometry" />
        </mxCell>
        <mxCell id="eVHg-SDSR93NSboe7xZ6-31" value="users" style="shape=table;startSize=30;container=1;collapsible=1;childLayout=tableLayout;fixedRows=1;rowLines=0;fontStyle=1;align=center;resizeLast=1;" vertex="1" parent="1">
          <mxGeometry x="-800" y="760" width="200" height="250" as="geometry" />
        </mxCell>
        <mxCell id="eVHg-SDSR93NSboe7xZ6-32" value="" style="shape=partialRectangle;collapsible=0;dropTarget=0;pointerEvents=0;fillColor=none;points=[[0,0.5],[1,0.5]];portConstraint=eastwest;top=0;left=0;right=0;bottom=1;" vertex="1" parent="eVHg-SDSR93NSboe7xZ6-31">
          <mxGeometry y="30" width="200" height="30" as="geometry" />
        </mxCell>
        <mxCell id="eVHg-SDSR93NSboe7xZ6-33" value="PK" style="shape=partialRectangle;overflow=hidden;connectable=0;fillColor=none;top=0;left=0;bottom=0;right=0;fontStyle=1;" vertex="1" parent="eVHg-SDSR93NSboe7xZ6-32">
          <mxGeometry width="30" height="30" as="geometry" />
        </mxCell>
        <mxCell id="eVHg-SDSR93NSboe7xZ6-34" value="user_id int NOT NULL " style="shape=partialRectangle;overflow=hidden;connectable=0;fillColor=none;top=0;left=0;bottom=0;right=0;align=left;spacingLeft=6;fontStyle=5;" vertex="1" parent="eVHg-SDSR93NSboe7xZ6-32">
          <mxGeometry x="30" width="170" height="30" as="geometry" />
        </mxCell>
        <mxCell id="eVHg-SDSR93NSboe7xZ6-35" value="" style="shape=partialRectangle;collapsible=0;dropTarget=0;pointerEvents=0;fillColor=none;points=[[0,0.5],[1,0.5]];portConstraint=eastwest;top=0;left=0;right=0;bottom=0;" vertex="1" parent="eVHg-SDSR93NSboe7xZ6-31">
          <mxGeometry y="60" width="200" height="30" as="geometry" />
        </mxCell>
        <mxCell id="eVHg-SDSR93NSboe7xZ6-36" value="" style="shape=partialRectangle;overflow=hidden;connectable=0;fillColor=none;top=0;left=0;bottom=0;right=0;" vertex="1" parent="eVHg-SDSR93NSboe7xZ6-35">
          <mxGeometry width="30" height="30" as="geometry" />
        </mxCell>
        <mxCell id="eVHg-SDSR93NSboe7xZ6-37" value="username String NOT NULL" style="shape=partialRectangle;overflow=hidden;connectable=0;fillColor=none;top=0;left=0;bottom=0;right=0;align=left;spacingLeft=6;" vertex="1" parent="eVHg-SDSR93NSboe7xZ6-35">
          <mxGeometry x="30" width="170" height="30" as="geometry" />
        </mxCell>
        <mxCell id="eVHg-SDSR93NSboe7xZ6-38" value="" style="shape=partialRectangle;collapsible=0;dropTarget=0;pointerEvents=0;fillColor=none;points=[[0,0.5],[1,0.5]];portConstraint=eastwest;top=0;left=0;right=0;bottom=0;" vertex="1" parent="eVHg-SDSR93NSboe7xZ6-31">
          <mxGeometry y="90" width="200" height="30" as="geometry" />
        </mxCell>
        <mxCell id="eVHg-SDSR93NSboe7xZ6-39" value="" style="shape=partialRectangle;overflow=hidden;connectable=0;fillColor=none;top=0;left=0;bottom=0;right=0;" vertex="1" parent="eVHg-SDSR93NSboe7xZ6-38">
          <mxGeometry width="30" height="30" as="geometry" />
        </mxCell>
        <mxCell id="eVHg-SDSR93NSboe7xZ6-40" value="password String NOT NULL" style="shape=partialRectangle;overflow=hidden;connectable=0;fillColor=none;top=0;left=0;bottom=0;right=0;align=left;spacingLeft=6;" vertex="1" parent="eVHg-SDSR93NSboe7xZ6-38">
          <mxGeometry x="30" width="170" height="30" as="geometry" />
        </mxCell>
        <mxCell id="eVHg-SDSR93NSboe7xZ6-41" value="" style="shape=partialRectangle;collapsible=0;dropTarget=0;pointerEvents=0;fillColor=none;points=[[0,0.5],[1,0.5]];portConstraint=eastwest;top=0;left=0;right=0;bottom=0;" vertex="1" parent="eVHg-SDSR93NSboe7xZ6-31">
          <mxGeometry y="120" width="200" height="30" as="geometry" />
        </mxCell>
        <mxCell id="eVHg-SDSR93NSboe7xZ6-42" value="" style="shape=partialRectangle;overflow=hidden;connectable=0;fillColor=none;top=0;left=0;bottom=0;right=0;" vertex="1" parent="eVHg-SDSR93NSboe7xZ6-41">
          <mxGeometry width="30" height="30" as="geometry" />
        </mxCell>
        <mxCell id="eVHg-SDSR93NSboe7xZ6-43" value="email String NOT NULL" style="shape=partialRectangle;overflow=hidden;connectable=0;fillColor=none;top=0;left=0;bottom=0;right=0;align=left;spacingLeft=6;" vertex="1" parent="eVHg-SDSR93NSboe7xZ6-41">
          <mxGeometry x="30" width="170" height="30" as="geometry" />
        </mxCell>
        <mxCell id="eVHg-SDSR93NSboe7xZ6-44" value="" style="shape=partialRectangle;collapsible=0;dropTarget=0;pointerEvents=0;fillColor=none;points=[[0,0.5],[1,0.5]];portConstraint=eastwest;top=0;left=0;right=0;bottom=0;" vertex="1" parent="eVHg-SDSR93NSboe7xZ6-31">
          <mxGeometry y="150" width="200" height="30" as="geometry" />
        </mxCell>
        <mxCell id="eVHg-SDSR93NSboe7xZ6-45" value="" style="shape=partialRectangle;overflow=hidden;connectable=0;fillColor=none;top=0;left=0;bottom=0;right=0;" vertex="1" parent="eVHg-SDSR93NSboe7xZ6-44">
          <mxGeometry width="30" height="30" as="geometry" />
        </mxCell>
        <mxCell id="eVHg-SDSR93NSboe7xZ6-46" value="name String" style="shape=partialRectangle;overflow=hidden;connectable=0;fillColor=none;top=0;left=0;bottom=0;right=0;align=left;spacingLeft=6;" vertex="1" parent="eVHg-SDSR93NSboe7xZ6-44">
          <mxGeometry x="30" width="170" height="30" as="geometry" />
        </mxCell>
        <mxCell id="eVHg-SDSR93NSboe7xZ6-47" value="" style="shape=partialRectangle;collapsible=0;dropTarget=0;pointerEvents=0;fillColor=none;points=[[0,0.5],[1,0.5]];portConstraint=eastwest;top=0;left=0;right=0;bottom=0;" vertex="1" parent="eVHg-SDSR93NSboe7xZ6-31">
          <mxGeometry y="180" width="200" height="30" as="geometry" />
        </mxCell>
        <mxCell id="eVHg-SDSR93NSboe7xZ6-48" value="" style="shape=partialRectangle;overflow=hidden;connectable=0;fillColor=none;top=0;left=0;bottom=0;right=0;" vertex="1" parent="eVHg-SDSR93NSboe7xZ6-47">
          <mxGeometry width="30" height="30" as="geometry" />
        </mxCell>
        <mxCell id="eVHg-SDSR93NSboe7xZ6-49" value="city String" style="shape=partialRectangle;overflow=hidden;connectable=0;fillColor=none;top=0;left=0;bottom=0;right=0;align=left;spacingLeft=6;" vertex="1" parent="eVHg-SDSR93NSboe7xZ6-47">
          <mxGeometry x="30" width="170" height="30" as="geometry" />
        </mxCell>
        <mxCell id="eVHg-SDSR93NSboe7xZ6-50" value="" style="shape=partialRectangle;collapsible=0;dropTarget=0;pointerEvents=0;fillColor=none;points=[[0,0.5],[1,0.5]];portConstraint=eastwest;top=0;left=0;right=0;bottom=0;" vertex="1" parent="eVHg-SDSR93NSboe7xZ6-31">
          <mxGeometry y="210" width="200" height="30" as="geometry" />
        </mxCell>
        <mxCell id="eVHg-SDSR93NSboe7xZ6-51" value="" style="shape=partialRectangle;overflow=hidden;connectable=0;fillColor=none;top=0;left=0;bottom=0;right=0;" vertex="1" parent="eVHg-SDSR93NSboe7xZ6-50">
          <mxGeometry width="30" height="30" as="geometry" />
        </mxCell>
        <mxCell id="eVHg-SDSR93NSboe7xZ6-52" value="registered DateTime" style="shape=partialRectangle;overflow=hidden;connectable=0;fillColor=none;top=0;left=0;bottom=0;right=0;align=left;spacingLeft=6;" vertex="1" parent="eVHg-SDSR93NSboe7xZ6-50">
          <mxGeometry x="30" width="170" height="30" as="geometry" />
        </mxCell>
        <mxCell id="eVHg-SDSR93NSboe7xZ6-53" value="books" style="shape=table;startSize=30;container=1;collapsible=1;childLayout=tableLayout;fixedRows=1;rowLines=0;fontStyle=1;align=center;resizeLast=1;" vertex="1" parent="1">
          <mxGeometry x="-560" y="760" width="180" height="370" as="geometry" />
        </mxCell>
        <mxCell id="eVHg-SDSR93NSboe7xZ6-54" value="" style="shape=partialRectangle;collapsible=0;dropTarget=0;pointerEvents=0;fillColor=none;points=[[0,0.5],[1,0.5]];portConstraint=eastwest;top=0;left=0;right=0;bottom=1;" vertex="1" parent="eVHg-SDSR93NSboe7xZ6-53">
          <mxGeometry y="30" width="180" height="30" as="geometry" />
        </mxCell>
        <mxCell id="eVHg-SDSR93NSboe7xZ6-55" value="PK" style="shape=partialRectangle;overflow=hidden;connectable=0;fillColor=none;top=0;left=0;bottom=0;right=0;fontStyle=1;" vertex="1" parent="eVHg-SDSR93NSboe7xZ6-54">
          <mxGeometry width="30" height="30" as="geometry" />
        </mxCell>
        <mxCell id="eVHg-SDSR93NSboe7xZ6-56" value="book_id int NOT NULL " style="shape=partialRectangle;overflow=hidden;connectable=0;fillColor=none;top=0;left=0;bottom=0;right=0;align=left;spacingLeft=6;fontStyle=5;" vertex="1" parent="eVHg-SDSR93NSboe7xZ6-54">
          <mxGeometry x="30" width="150" height="30" as="geometry" />
        </mxCell>
        <mxCell id="eVHg-SDSR93NSboe7xZ6-57" value="" style="shape=partialRectangle;collapsible=0;dropTarget=0;pointerEvents=0;fillColor=none;points=[[0,0.5],[1,0.5]];portConstraint=eastwest;top=0;left=0;right=0;bottom=0;" vertex="1" parent="eVHg-SDSR93NSboe7xZ6-53">
          <mxGeometry y="60" width="180" height="30" as="geometry" />
        </mxCell>
        <mxCell id="eVHg-SDSR93NSboe7xZ6-58" value="" style="shape=partialRectangle;overflow=hidden;connectable=0;fillColor=none;top=0;left=0;bottom=0;right=0;" vertex="1" parent="eVHg-SDSR93NSboe7xZ6-57">
          <mxGeometry width="30" height="30" as="geometry" />
        </mxCell>
        <mxCell id="eVHg-SDSR93NSboe7xZ6-59" value="title String NOT NULL" style="shape=partialRectangle;overflow=hidden;connectable=0;fillColor=none;top=0;left=0;bottom=0;right=0;align=left;spacingLeft=6;" vertex="1" parent="eVHg-SDSR93NSboe7xZ6-57">
          <mxGeometry x="30" width="150" height="30" as="geometry" />
        </mxCell>
        <mxCell id="eVHg-SDSR93NSboe7xZ6-60" value="" style="shape=partialRectangle;collapsible=0;dropTarget=0;pointerEvents=0;fillColor=none;points=[[0,0.5],[1,0.5]];portConstraint=eastwest;top=0;left=0;right=0;bottom=0;" vertex="1" parent="eVHg-SDSR93NSboe7xZ6-53">
          <mxGeometry y="90" width="180" height="30" as="geometry" />
        </mxCell>
        <mxCell id="eVHg-SDSR93NSboe7xZ6-61" value="" style="shape=partialRectangle;overflow=hidden;connectable=0;fillColor=none;top=0;left=0;bottom=0;right=0;" vertex="1" parent="eVHg-SDSR93NSboe7xZ6-60">
          <mxGeometry width="30" height="30" as="geometry" />
        </mxCell>
        <mxCell id="eVHg-SDSR93NSboe7xZ6-62" value="author String NOT NULL" style="shape=partialRectangle;overflow=hidden;connectable=0;fillColor=none;top=0;left=0;bottom=0;right=0;align=left;spacingLeft=6;" vertex="1" parent="eVHg-SDSR93NSboe7xZ6-60">
          <mxGeometry x="30" width="150" height="30" as="geometry" />
        </mxCell>
        <mxCell id="eVHg-SDSR93NSboe7xZ6-63" value="" style="shape=partialRectangle;collapsible=0;dropTarget=0;pointerEvents=0;fillColor=none;points=[[0,0.5],[1,0.5]];portConstraint=eastwest;top=0;left=0;right=0;bottom=0;" vertex="1" parent="eVHg-SDSR93NSboe7xZ6-53">
          <mxGeometry y="120" width="180" height="30" as="geometry" />
        </mxCell>
        <mxCell id="eVHg-SDSR93NSboe7xZ6-64" value="" style="shape=partialRectangle;overflow=hidden;connectable=0;fillColor=none;top=0;left=0;bottom=0;right=0;" vertex="1" parent="eVHg-SDSR93NSboe7xZ6-63">
          <mxGeometry width="30" height="30" as="geometry" />
        </mxCell>
        <mxCell id="eVHg-SDSR93NSboe7xZ6-65" value="isbn String" style="shape=partialRectangle;overflow=hidden;connectable=0;fillColor=none;top=0;left=0;bottom=0;right=0;align=left;spacingLeft=6;" vertex="1" parent="eVHg-SDSR93NSboe7xZ6-63">
          <mxGeometry x="30" width="150" height="30" as="geometry" />
        </mxCell>
        <mxCell id="eVHg-SDSR93NSboe7xZ6-66" value="" style="shape=partialRectangle;collapsible=0;dropTarget=0;pointerEvents=0;fillColor=none;points=[[0,0.5],[1,0.5]];portConstraint=eastwest;top=0;left=0;right=0;bottom=0;" vertex="1" parent="eVHg-SDSR93NSboe7xZ6-53">
          <mxGeometry y="150" width="180" height="30" as="geometry" />
        </mxCell>
        <mxCell id="eVHg-SDSR93NSboe7xZ6-67" value="" style="shape=partialRectangle;overflow=hidden;connectable=0;fillColor=none;top=0;left=0;bottom=0;right=0;" vertex="1" parent="eVHg-SDSR93NSboe7xZ6-66">
          <mxGeometry width="30" height="30" as="geometry" />
        </mxCell>
        <mxCell id="eVHg-SDSR93NSboe7xZ6-68" value="genre String" style="shape=partialRectangle;overflow=hidden;connectable=0;fillColor=none;top=0;left=0;bottom=0;right=0;align=left;spacingLeft=6;" vertex="1" parent="eVHg-SDSR93NSboe7xZ6-66">
          <mxGeometry x="30" width="150" height="30" as="geometry" />
        </mxCell>
        <mxCell id="eVHg-SDSR93NSboe7xZ6-69" value="" style="shape=partialRectangle;collapsible=0;dropTarget=0;pointerEvents=0;fillColor=none;points=[[0,0.5],[1,0.5]];portConstraint=eastwest;top=0;left=0;right=0;bottom=0;" vertex="1" parent="eVHg-SDSR93NSboe7xZ6-53">
          <mxGeometry y="180" width="180" height="30" as="geometry" />
        </mxCell>
        <mxCell id="eVHg-SDSR93NSboe7xZ6-70" value="" style="shape=partialRectangle;overflow=hidden;connectable=0;fillColor=none;top=0;left=0;bottom=0;right=0;" vertex="1" parent="eVHg-SDSR93NSboe7xZ6-69">
          <mxGeometry width="30" height="30" as="geometry" />
        </mxCell>
        <mxCell id="eVHg-SDSR93NSboe7xZ6-71" value="language String" style="shape=partialRectangle;overflow=hidden;connectable=0;fillColor=none;top=0;left=0;bottom=0;right=0;align=left;spacingLeft=6;" vertex="1" parent="eVHg-SDSR93NSboe7xZ6-69">
          <mxGeometry x="30" width="150" height="30" as="geometry" />
        </mxCell>
        <mxCell id="eVHg-SDSR93NSboe7xZ6-72" value="" style="shape=partialRectangle;collapsible=0;dropTarget=0;pointerEvents=0;fillColor=none;points=[[0,0.5],[1,0.5]];portConstraint=eastwest;top=0;left=0;right=0;bottom=0;" vertex="1" parent="eVHg-SDSR93NSboe7xZ6-53">
          <mxGeometry y="210" width="180" height="30" as="geometry" />
        </mxCell>
        <mxCell id="eVHg-SDSR93NSboe7xZ6-73" value="" style="shape=partialRectangle;overflow=hidden;connectable=0;fillColor=none;top=0;left=0;bottom=0;right=0;" vertex="1" parent="eVHg-SDSR93NSboe7xZ6-72">
          <mxGeometry width="30" height="30" as="geometry" />
        </mxCell>
        <mxCell id="eVHg-SDSR93NSboe7xZ6-74" value="for_age String" style="shape=partialRectangle;overflow=hidden;connectable=0;fillColor=none;top=0;left=0;bottom=0;right=0;align=left;spacingLeft=6;" vertex="1" parent="eVHg-SDSR93NSboe7xZ6-72">
          <mxGeometry x="30" width="150" height="30" as="geometry" />
        </mxCell>
        <mxCell id="eVHg-SDSR93NSboe7xZ6-75" value="" style="shape=partialRectangle;collapsible=0;dropTarget=0;pointerEvents=0;fillColor=none;points=[[0,0.5],[1,0.5]];portConstraint=eastwest;top=0;left=0;right=0;bottom=0;" vertex="1" parent="eVHg-SDSR93NSboe7xZ6-53">
          <mxGeometry y="240" width="180" height="30" as="geometry" />
        </mxCell>
        <mxCell id="eVHg-SDSR93NSboe7xZ6-76" value="" style="shape=partialRectangle;overflow=hidden;connectable=0;fillColor=none;top=0;left=0;bottom=0;right=0;" vertex="1" parent="eVHg-SDSR93NSboe7xZ6-75">
          <mxGeometry width="30" height="30" as="geometry" />
        </mxCell>
        <mxCell id="eVHg-SDSR93NSboe7xZ6-77" value="tags String" style="shape=partialRectangle;overflow=hidden;connectable=0;fillColor=none;top=0;left=0;bottom=0;right=0;align=left;spacingLeft=6;" vertex="1" parent="eVHg-SDSR93NSboe7xZ6-75">
          <mxGeometry x="30" width="150" height="30" as="geometry" />
        </mxCell>
        <mxCell id="eVHg-SDSR93NSboe7xZ6-78" value="" style="shape=partialRectangle;collapsible=0;dropTarget=0;pointerEvents=0;fillColor=none;points=[[0,0.5],[1,0.5]];portConstraint=eastwest;top=0;left=0;right=0;bottom=0;" vertex="1" parent="eVHg-SDSR93NSboe7xZ6-53">
          <mxGeometry y="270" width="180" height="30" as="geometry" />
        </mxCell>
        <mxCell id="eVHg-SDSR93NSboe7xZ6-79" value="" style="shape=partialRectangle;overflow=hidden;connectable=0;fillColor=none;top=0;left=0;bottom=0;right=0;" vertex="1" parent="eVHg-SDSR93NSboe7xZ6-78">
          <mxGeometry width="30" height="30" as="geometry" />
        </mxCell>
        <mxCell id="eVHg-SDSR93NSboe7xZ6-80" value="publisher String" style="shape=partialRectangle;overflow=hidden;connectable=0;fillColor=none;top=0;left=0;bottom=0;right=0;align=left;spacingLeft=6;" vertex="1" parent="eVHg-SDSR93NSboe7xZ6-78">
          <mxGeometry x="30" width="150" height="30" as="geometry" />
        </mxCell>
        <mxCell id="eVHg-SDSR93NSboe7xZ6-81" value="" style="shape=partialRectangle;collapsible=0;dropTarget=0;pointerEvents=0;fillColor=none;points=[[0,0.5],[1,0.5]];portConstraint=eastwest;top=0;left=0;right=0;bottom=0;" vertex="1" parent="eVHg-SDSR93NSboe7xZ6-53">
          <mxGeometry y="300" width="180" height="30" as="geometry" />
        </mxCell>
        <mxCell id="eVHg-SDSR93NSboe7xZ6-82" value="" style="shape=partialRectangle;overflow=hidden;connectable=0;fillColor=none;top=0;left=0;bottom=0;right=0;" vertex="1" parent="eVHg-SDSR93NSboe7xZ6-81">
          <mxGeometry width="30" height="30" as="geometry" />
        </mxCell>
        <mxCell id="eVHg-SDSR93NSboe7xZ6-83" value="condition String" style="shape=partialRectangle;overflow=hidden;connectable=0;fillColor=none;top=0;left=0;bottom=0;right=0;align=left;spacingLeft=6;" vertex="1" parent="eVHg-SDSR93NSboe7xZ6-81">
          <mxGeometry x="30" width="150" height="30" as="geometry" />
        </mxCell>
        <mxCell id="eVHg-SDSR93NSboe7xZ6-84" value="" style="shape=partialRectangle;collapsible=0;dropTarget=0;pointerEvents=0;fillColor=none;points=[[0,0.5],[1,0.5]];portConstraint=eastwest;top=0;left=0;right=0;bottom=0;" vertex="1" parent="eVHg-SDSR93NSboe7xZ6-53">
          <mxGeometry y="330" width="180" height="30" as="geometry" />
        </mxCell>
        <mxCell id="eVHg-SDSR93NSboe7xZ6-85" value="" style="shape=partialRectangle;overflow=hidden;connectable=0;fillColor=none;top=0;left=0;bottom=0;right=0;" vertex="1" parent="eVHg-SDSR93NSboe7xZ6-84">
          <mxGeometry width="30" height="30" as="geometry" />
        </mxCell>
        <mxCell id="eVHg-SDSR93NSboe7xZ6-86" value="date Date" style="shape=partialRectangle;overflow=hidden;connectable=0;fillColor=none;top=0;left=0;bottom=0;right=0;align=left;spacingLeft=6;" vertex="1" parent="eVHg-SDSR93NSboe7xZ6-84">
          <mxGeometry x="30" width="150" height="30" as="geometry" />
        </mxCell>
        <mxCell id="eVHg-SDSR93NSboe7xZ6-87" value="locations" style="shape=table;startSize=30;container=1;collapsible=1;childLayout=tableLayout;fixedRows=1;rowLines=0;fontStyle=1;align=center;resizeLast=1;" vertex="1" parent="1">
          <mxGeometry x="-340" y="760" width="200" height="250" as="geometry" />
        </mxCell>
        <mxCell id="eVHg-SDSR93NSboe7xZ6-88" value="" style="shape=partialRectangle;collapsible=0;dropTarget=0;pointerEvents=0;fillColor=none;points=[[0,0.5],[1,0.5]];portConstraint=eastwest;top=0;left=0;right=0;bottom=1;" vertex="1" parent="eVHg-SDSR93NSboe7xZ6-87">
          <mxGeometry y="30" width="200" height="30" as="geometry" />
        </mxCell>
        <mxCell id="eVHg-SDSR93NSboe7xZ6-89" value="PK" style="shape=partialRectangle;overflow=hidden;connectable=0;fillColor=none;top=0;left=0;bottom=0;right=0;fontStyle=1;" vertex="1" parent="eVHg-SDSR93NSboe7xZ6-88">
          <mxGeometry width="30" height="30" as="geometry" />
        </mxCell>
        <mxCell id="eVHg-SDSR93NSboe7xZ6-90" value="location_id int NOT NULL " style="shape=partialRectangle;overflow=hidden;connectable=0;fillColor=none;top=0;left=0;bottom=0;right=0;align=left;spacingLeft=6;fontStyle=5;" vertex="1" parent="eVHg-SDSR93NSboe7xZ6-88">
          <mxGeometry x="30" width="170" height="30" as="geometry" />
        </mxCell>
        <mxCell id="eVHg-SDSR93NSboe7xZ6-91" value="" style="shape=partialRectangle;collapsible=0;dropTarget=0;pointerEvents=0;fillColor=none;points=[[0,0.5],[1,0.5]];portConstraint=eastwest;top=0;left=0;right=0;bottom=0;" vertex="1" parent="eVHg-SDSR93NSboe7xZ6-87">
          <mxGeometry y="60" width="200" height="30" as="geometry" />
        </mxCell>
        <mxCell id="eVHg-SDSR93NSboe7xZ6-92" value="" style="shape=partialRectangle;overflow=hidden;connectable=0;fillColor=none;top=0;left=0;bottom=0;right=0;" vertex="1" parent="eVHg-SDSR93NSboe7xZ6-91">
          <mxGeometry width="30" height="30" as="geometry" />
        </mxCell>
        <mxCell id="eVHg-SDSR93NSboe7xZ6-93" value="street String" style="shape=partialRectangle;overflow=hidden;connectable=0;fillColor=none;top=0;left=0;bottom=0;right=0;align=left;spacingLeft=6;" vertex="1" parent="eVHg-SDSR93NSboe7xZ6-91">
          <mxGeometry x="30" width="170" height="30" as="geometry" />
        </mxCell>
        <mxCell id="eVHg-SDSR93NSboe7xZ6-94" value="" style="shape=partialRectangle;collapsible=0;dropTarget=0;pointerEvents=0;fillColor=none;points=[[0,0.5],[1,0.5]];portConstraint=eastwest;top=0;left=0;right=0;bottom=0;" vertex="1" parent="eVHg-SDSR93NSboe7xZ6-87">
          <mxGeometry y="90" width="200" height="30" as="geometry" />
        </mxCell>
        <mxCell id="eVHg-SDSR93NSboe7xZ6-95" value="" style="shape=partialRectangle;overflow=hidden;connectable=0;fillColor=none;top=0;left=0;bottom=0;right=0;" vertex="1" parent="eVHg-SDSR93NSboe7xZ6-94">
          <mxGeometry width="30" height="30" as="geometry" />
        </mxCell>
        <mxCell id="eVHg-SDSR93NSboe7xZ6-96" value="number int" style="shape=partialRectangle;overflow=hidden;connectable=0;fillColor=none;top=0;left=0;bottom=0;right=0;align=left;spacingLeft=6;" vertex="1" parent="eVHg-SDSR93NSboe7xZ6-94">
          <mxGeometry x="30" width="170" height="30" as="geometry" />
        </mxCell>
        <mxCell id="eVHg-SDSR93NSboe7xZ6-97" value="" style="shape=partialRectangle;collapsible=0;dropTarget=0;pointerEvents=0;fillColor=none;points=[[0,0.5],[1,0.5]];portConstraint=eastwest;top=0;left=0;right=0;bottom=0;" vertex="1" parent="eVHg-SDSR93NSboe7xZ6-87">
          <mxGeometry y="120" width="200" height="30" as="geometry" />
        </mxCell>
        <mxCell id="eVHg-SDSR93NSboe7xZ6-98" value="" style="shape=partialRectangle;overflow=hidden;connectable=0;fillColor=none;top=0;left=0;bottom=0;right=0;" vertex="1" parent="eVHg-SDSR93NSboe7xZ6-97">
          <mxGeometry width="30" height="30" as="geometry" />
        </mxCell>
        <mxCell id="eVHg-SDSR93NSboe7xZ6-99" value="postcode String" style="shape=partialRectangle;overflow=hidden;connectable=0;fillColor=none;top=0;left=0;bottom=0;right=0;align=left;spacingLeft=6;" vertex="1" parent="eVHg-SDSR93NSboe7xZ6-97">
          <mxGeometry x="30" width="170" height="30" as="geometry" />
        </mxCell>
        <mxCell id="eVHg-SDSR93NSboe7xZ6-100" value="" style="shape=partialRectangle;collapsible=0;dropTarget=0;pointerEvents=0;fillColor=none;points=[[0,0.5],[1,0.5]];portConstraint=eastwest;top=0;left=0;right=0;bottom=0;" vertex="1" parent="eVHg-SDSR93NSboe7xZ6-87">
          <mxGeometry y="150" width="200" height="30" as="geometry" />
        </mxCell>
        <mxCell id="eVHg-SDSR93NSboe7xZ6-101" value="" style="shape=partialRectangle;overflow=hidden;connectable=0;fillColor=none;top=0;left=0;bottom=0;right=0;" vertex="1" parent="eVHg-SDSR93NSboe7xZ6-100">
          <mxGeometry width="30" height="30" as="geometry" />
        </mxCell>
        <mxCell id="eVHg-SDSR93NSboe7xZ6-102" value="city String" style="shape=partialRectangle;overflow=hidden;connectable=0;fillColor=none;top=0;left=0;bottom=0;right=0;align=left;spacingLeft=6;" vertex="1" parent="eVHg-SDSR93NSboe7xZ6-100">
          <mxGeometry x="30" width="170" height="30" as="geometry" />
        </mxCell>
        <mxCell id="eVHg-SDSR93NSboe7xZ6-103" value="" style="shape=partialRectangle;collapsible=0;dropTarget=0;pointerEvents=0;fillColor=none;points=[[0,0.5],[1,0.5]];portConstraint=eastwest;top=0;left=0;right=0;bottom=0;" vertex="1" parent="eVHg-SDSR93NSboe7xZ6-87">
          <mxGeometry y="180" width="200" height="30" as="geometry" />
        </mxCell>
        <mxCell id="eVHg-SDSR93NSboe7xZ6-104" value="" style="shape=partialRectangle;overflow=hidden;connectable=0;fillColor=none;top=0;left=0;bottom=0;right=0;" vertex="1" parent="eVHg-SDSR93NSboe7xZ6-103">
          <mxGeometry width="30" height="30" as="geometry" />
        </mxCell>
        <mxCell id="eVHg-SDSR93NSboe7xZ6-105" value="latitude String NOT NULL" style="shape=partialRectangle;overflow=hidden;connectable=0;fillColor=none;top=0;left=0;bottom=0;right=0;align=left;spacingLeft=6;" vertex="1" parent="eVHg-SDSR93NSboe7xZ6-103">
          <mxGeometry x="30" width="170" height="30" as="geometry" />
        </mxCell>
        <mxCell id="eVHg-SDSR93NSboe7xZ6-106" value="" style="shape=partialRectangle;collapsible=0;dropTarget=0;pointerEvents=0;fillColor=none;points=[[0,0.5],[1,0.5]];portConstraint=eastwest;top=0;left=0;right=0;bottom=0;" vertex="1" parent="eVHg-SDSR93NSboe7xZ6-87">
          <mxGeometry y="210" width="200" height="30" as="geometry" />
        </mxCell>
        <mxCell id="eVHg-SDSR93NSboe7xZ6-107" value="" style="shape=partialRectangle;overflow=hidden;connectable=0;fillColor=none;top=0;left=0;bottom=0;right=0;" vertex="1" parent="eVHg-SDSR93NSboe7xZ6-106">
          <mxGeometry width="30" height="30" as="geometry" />
        </mxCell>
        <mxCell id="eVHg-SDSR93NSboe7xZ6-108" value="longitude String NOT NULL" style="shape=partialRectangle;overflow=hidden;connectable=0;fillColor=none;top=0;left=0;bottom=0;right=0;align=left;spacingLeft=6;" vertex="1" parent="eVHg-SDSR93NSboe7xZ6-106">
          <mxGeometry x="30" width="170" height="30" as="geometry" />
        </mxCell>
        <mxCell id="eVHg-SDSR93NSboe7xZ6-109" value="hidingplaces" style="shape=table;startSize=30;container=1;collapsible=1;childLayout=tableLayout;fixedRows=1;rowLines=0;fontStyle=1;align=center;resizeLast=1;" vertex="1" parent="1">
          <mxGeometry x="-100" y="760" width="270" height="310" as="geometry" />
        </mxCell>
        <mxCell id="eVHg-SDSR93NSboe7xZ6-110" value="" style="shape=partialRectangle;collapsible=0;dropTarget=0;pointerEvents=0;fillColor=none;points=[[0,0.5],[1,0.5]];portConstraint=eastwest;top=0;left=0;right=0;bottom=1;" vertex="1" parent="eVHg-SDSR93NSboe7xZ6-109">
          <mxGeometry y="30" width="270" height="30" as="geometry" />
        </mxCell>
        <mxCell id="eVHg-SDSR93NSboe7xZ6-111" value="PK" style="shape=partialRectangle;overflow=hidden;connectable=0;fillColor=none;top=0;left=0;bottom=0;right=0;fontStyle=1;" vertex="1" parent="eVHg-SDSR93NSboe7xZ6-110">
          <mxGeometry width="30" height="30" as="geometry" />
        </mxCell>
        <mxCell id="eVHg-SDSR93NSboe7xZ6-112" value="place_id int NOT NULL " style="shape=partialRectangle;overflow=hidden;connectable=0;fillColor=none;top=0;left=0;bottom=0;right=0;align=left;spacingLeft=6;fontStyle=5;" vertex="1" parent="eVHg-SDSR93NSboe7xZ6-110">
          <mxGeometry x="30" width="240" height="30" as="geometry" />
        </mxCell>
        <mxCell id="eVHg-SDSR93NSboe7xZ6-113" value="" style="shape=partialRectangle;collapsible=0;dropTarget=0;pointerEvents=0;fillColor=none;points=[[0,0.5],[1,0.5]];portConstraint=eastwest;top=0;left=0;right=0;bottom=0;" vertex="1" parent="eVHg-SDSR93NSboe7xZ6-109">
          <mxGeometry y="60" width="270" height="30" as="geometry" />
        </mxCell>
        <mxCell id="eVHg-SDSR93NSboe7xZ6-114" value="FK" style="shape=partialRectangle;overflow=hidden;connectable=0;fillColor=none;top=0;left=0;bottom=0;right=0;" vertex="1" parent="eVHg-SDSR93NSboe7xZ6-113">
          <mxGeometry width="30" height="30" as="geometry" />
        </mxCell>
        <mxCell id="eVHg-SDSR93NSboe7xZ6-115" value="user_id int NOT NULL" style="shape=partialRectangle;overflow=hidden;connectable=0;fillColor=none;top=0;left=0;bottom=0;right=0;align=left;spacingLeft=6;" vertex="1" parent="eVHg-SDSR93NSboe7xZ6-113">
          <mxGeometry x="30" width="240" height="30" as="geometry" />
        </mxCell>
        <mxCell id="eVHg-SDSR93NSboe7xZ6-116" value="" style="shape=partialRectangle;collapsible=0;dropTarget=0;pointerEvents=0;fillColor=none;points=[[0,0.5],[1,0.5]];portConstraint=eastwest;top=0;left=0;right=0;bottom=0;" vertex="1" parent="eVHg-SDSR93NSboe7xZ6-109">
          <mxGeometry y="90" width="270" height="30" as="geometry" />
        </mxCell>
        <mxCell id="eVHg-SDSR93NSboe7xZ6-117" value="" style="shape=partialRectangle;overflow=hidden;connectable=0;fillColor=none;top=0;left=0;bottom=0;right=0;" vertex="1" parent="eVHg-SDSR93NSboe7xZ6-116">
          <mxGeometry width="30" height="30" as="geometry" />
        </mxCell>
        <mxCell id="eVHg-SDSR93NSboe7xZ6-118" value="users backref &#39;users&#39;" style="shape=partialRectangle;overflow=hidden;connectable=0;fillColor=none;top=0;left=0;bottom=0;right=0;align=left;spacingLeft=6;" vertex="1" parent="eVHg-SDSR93NSboe7xZ6-116">
          <mxGeometry x="30" width="240" height="30" as="geometry" />
        </mxCell>
        <mxCell id="eVHg-SDSR93NSboe7xZ6-119" value="" style="shape=partialRectangle;collapsible=0;dropTarget=0;pointerEvents=0;fillColor=none;points=[[0,0.5],[1,0.5]];portConstraint=eastwest;top=0;left=0;right=0;bottom=0;" vertex="1" parent="eVHg-SDSR93NSboe7xZ6-109">
          <mxGeometry y="120" width="270" height="30" as="geometry" />
        </mxCell>
        <mxCell id="eVHg-SDSR93NSboe7xZ6-120" value="FK" style="shape=partialRectangle;overflow=hidden;connectable=0;fillColor=none;top=0;left=0;bottom=0;right=0;" vertex="1" parent="eVHg-SDSR93NSboe7xZ6-119">
          <mxGeometry width="30" height="30" as="geometry" />
        </mxCell>
        <mxCell id="eVHg-SDSR93NSboe7xZ6-121" value="book_id int NOT NULLÂ " style="shape=partialRectangle;overflow=hidden;connectable=0;fillColor=none;top=0;left=0;bottom=0;right=0;align=left;spacingLeft=6;" vertex="1" parent="eVHg-SDSR93NSboe7xZ6-119">
          <mxGeometry x="30" width="240" height="30" as="geometry" />
        </mxCell>
        <mxCell id="eVHg-SDSR93NSboe7xZ6-122" value="" style="shape=partialRectangle;collapsible=0;dropTarget=0;pointerEvents=0;fillColor=none;points=[[0,0.5],[1,0.5]];portConstraint=eastwest;top=0;left=0;right=0;bottom=0;" vertex="1" parent="eVHg-SDSR93NSboe7xZ6-109">
          <mxGeometry y="150" width="270" height="30" as="geometry" />
        </mxCell>
        <mxCell id="eVHg-SDSR93NSboe7xZ6-123" value="" style="shape=partialRectangle;overflow=hidden;connectable=0;fillColor=none;top=0;left=0;bottom=0;right=0;" vertex="1" parent="eVHg-SDSR93NSboe7xZ6-122">
          <mxGeometry width="30" height="30" as="geometry" />
        </mxCell>
        <mxCell id="eVHg-SDSR93NSboe7xZ6-124" value="books backref &#39;books&#39;" style="shape=partialRectangle;overflow=hidden;connectable=0;fillColor=none;top=0;left=0;bottom=0;right=0;align=left;spacingLeft=6;" vertex="1" parent="eVHg-SDSR93NSboe7xZ6-122">
          <mxGeometry x="30" width="240" height="30" as="geometry" />
        </mxCell>
        <mxCell id="eVHg-SDSR93NSboe7xZ6-125" value="" style="shape=partialRectangle;collapsible=0;dropTarget=0;pointerEvents=0;fillColor=none;points=[[0,0.5],[1,0.5]];portConstraint=eastwest;top=0;left=0;right=0;bottom=0;" vertex="1" parent="eVHg-SDSR93NSboe7xZ6-109">
          <mxGeometry y="180" width="270" height="30" as="geometry" />
        </mxCell>
        <mxCell id="eVHg-SDSR93NSboe7xZ6-126" value="FK" style="shape=partialRectangle;overflow=hidden;connectable=0;fillColor=none;top=0;left=0;bottom=0;right=0;" vertex="1" parent="eVHg-SDSR93NSboe7xZ6-125">
          <mxGeometry width="30" height="30" as="geometry" />
        </mxCell>
        <mxCell id="eVHg-SDSR93NSboe7xZ6-127" value="location_id int NOT NULLÂ " style="shape=partialRectangle;overflow=hidden;connectable=0;fillColor=none;top=0;left=0;bottom=0;right=0;align=left;spacingLeft=6;" vertex="1" parent="eVHg-SDSR93NSboe7xZ6-125">
          <mxGeometry x="30" width="240" height="30" as="geometry" />
        </mxCell>
        <mxCell id="eVHg-SDSR93NSboe7xZ6-128" value="" style="shape=partialRectangle;collapsible=0;dropTarget=0;pointerEvents=0;fillColor=none;points=[[0,0.5],[1,0.5]];portConstraint=eastwest;top=0;left=0;right=0;bottom=0;" vertex="1" parent="eVHg-SDSR93NSboe7xZ6-109">
          <mxGeometry y="210" width="270" height="30" as="geometry" />
        </mxCell>
        <mxCell id="eVHg-SDSR93NSboe7xZ6-129" value="" style="shape=partialRectangle;overflow=hidden;connectable=0;fillColor=none;top=0;left=0;bottom=0;right=0;" vertex="1" parent="eVHg-SDSR93NSboe7xZ6-128">
          <mxGeometry width="30" height="30" as="geometry" />
        </mxCell>
        <mxCell id="eVHg-SDSR93NSboe7xZ6-130" value="locations backref &#39;locations&#39;" style="shape=partialRectangle;overflow=hidden;connectable=0;fillColor=none;top=0;left=0;bottom=0;right=0;align=left;spacingLeft=6;" vertex="1" parent="eVHg-SDSR93NSboe7xZ6-128">
          <mxGeometry x="30" width="240" height="30" as="geometry" />
        </mxCell>
        <mxCell id="eVHg-SDSR93NSboe7xZ6-131" value="" style="shape=partialRectangle;collapsible=0;dropTarget=0;pointerEvents=0;fillColor=none;points=[[0,0.5],[1,0.5]];portConstraint=eastwest;top=0;left=0;right=0;bottom=0;" vertex="1" parent="eVHg-SDSR93NSboe7xZ6-109">
          <mxGeometry y="240" width="270" height="30" as="geometry" />
        </mxCell>
        <mxCell id="eVHg-SDSR93NSboe7xZ6-132" value="" style="shape=partialRectangle;overflow=hidden;connectable=0;fillColor=none;top=0;left=0;bottom=0;right=0;" vertex="1" parent="eVHg-SDSR93NSboe7xZ6-131">
          <mxGeometry width="30" height="30" as="geometry" />
        </mxCell>
        <mxCell id="eVHg-SDSR93NSboe7xZ6-133" value="notes String" style="shape=partialRectangle;overflow=hidden;connectable=0;fillColor=none;top=0;left=0;bottom=0;right=0;align=left;spacingLeft=6;" vertex="1" parent="eVHg-SDSR93NSboe7xZ6-131">
          <mxGeometry x="30" width="240" height="30" as="geometry" />
        </mxCell>
        <mxCell id="eVHg-SDSR93NSboe7xZ6-134" value="" style="shape=partialRectangle;collapsible=0;dropTarget=0;pointerEvents=0;fillColor=none;points=[[0,0.5],[1,0.5]];portConstraint=eastwest;top=0;left=0;right=0;bottom=0;" vertex="1" parent="eVHg-SDSR93NSboe7xZ6-109">
          <mxGeometry y="270" width="270" height="30" as="geometry" />
        </mxCell>
        <mxCell id="eVHg-SDSR93NSboe7xZ6-135" value="" style="shape=partialRectangle;overflow=hidden;connectable=0;fillColor=none;top=0;left=0;bottom=0;right=0;" vertex="1" parent="eVHg-SDSR93NSboe7xZ6-134">
          <mxGeometry width="30" height="30" as="geometry" />
        </mxCell>
        <mxCell id="eVHg-SDSR93NSboe7xZ6-136" value="date Date" style="shape=partialRectangle;overflow=hidden;connectable=0;fillColor=none;top=0;left=0;bottom=0;right=0;align=left;spacingLeft=6;" vertex="1" parent="eVHg-SDSR93NSboe7xZ6-134">
          <mxGeometry x="30" width="240" height="30" as="geometry" />
        </mxCell>
        <mxCell id="eVHg-SDSR93NSboe7xZ6-140" value="&lt;p style=&quot;margin: 0px ; margin-top: 4px ; text-align: center&quot;&gt;&lt;b&gt;&lt;i&gt;BaseModel&lt;/i&gt;&lt;/b&gt;&lt;/p&gt;&lt;hr size=&quot;1&quot;&gt;&lt;div style=&quot;height: 2px&quot;&gt;&amp;nbsp;+ to_dict(self): dict&lt;/div&gt;" style="verticalAlign=top;align=left;overflow=fill;fontSize=12;fontFamily=Helvetica;html=1;" vertex="1" parent="1">
          <mxGeometry x="-430" y="611" width="140" height="60" as="geometry" />
        </mxCell>
        <mxCell id="eVHg-SDSR93NSboe7xZ6-142" value="Extends" style="endArrow=block;endSize=16;endFill=0;html=1;exitX=0.5;exitY=0;exitDx=0;exitDy=0;" edge="1" parent="1" source="eVHg-SDSR93NSboe7xZ6-31" target="eVHg-SDSR93NSboe7xZ6-140">
          <mxGeometry width="160" relative="1" as="geometry">
            <mxPoint x="-730" y="700" as="sourcePoint" />
            <mxPoint x="-570" y="700" as="targetPoint" />
          </mxGeometry>
        </mxCell>
        <mxCell id="eVHg-SDSR93NSboe7xZ6-143" value="Extends" style="endArrow=block;endSize=16;endFill=0;html=1;exitX=0.5;exitY=0;exitDx=0;exitDy=0;entryX=0.5;entryY=1;entryDx=0;entryDy=0;" edge="1" parent="1" source="eVHg-SDSR93NSboe7xZ6-53" target="eVHg-SDSR93NSboe7xZ6-140">
          <mxGeometry width="160" relative="1" as="geometry">
            <mxPoint x="-490" y="680" as="sourcePoint" />
            <mxPoint x="-330" y="680" as="targetPoint" />
          </mxGeometry>
        </mxCell>
        <mxCell id="eVHg-SDSR93NSboe7xZ6-144" value="Extends" style="endArrow=block;endSize=16;endFill=0;html=1;exitX=0.5;exitY=0;exitDx=0;exitDy=0;entryX=0.5;entryY=1;entryDx=0;entryDy=0;" edge="1" parent="1" source="eVHg-SDSR93NSboe7xZ6-87" target="eVHg-SDSR93NSboe7xZ6-140">
          <mxGeometry width="160" relative="1" as="geometry">
            <mxPoint x="-180" y="700" as="sourcePoint" />
            <mxPoint x="-20" y="700" as="targetPoint" />
          </mxGeometry>
        </mxCell>
        <mxCell id="eVHg-SDSR93NSboe7xZ6-145" value="Extends" style="endArrow=block;endSize=16;endFill=0;html=1;exitX=0.5;exitY=0;exitDx=0;exitDy=0;" edge="1" parent="1" source="eVHg-SDSR93NSboe7xZ6-109" target="eVHg-SDSR93NSboe7xZ6-140">
          <mxGeometry x="-0.25" width="160" relative="1" as="geometry">
            <mxPoint x="50" y="700" as="sourcePoint" />
            <mxPoint x="35" y="680" as="targetPoint" />
            <mxPoint as="offset" />
          </mxGeometry>
        </mxCell>
        <mxCell id="eVHg-SDSR93NSboe7xZ6-148" value="Flask" style="html=1;" vertex="1" parent="1">
          <mxGeometry x="-760" y="240" width="110" height="50" as="geometry" />
        </mxCell>
        <mxCell id="eVHg-SDSR93NSboe7xZ6-149" value="SQLAlchemy" style="html=1;" vertex="1" parent="1">
          <mxGeometry x="-760" y="383.5" width="110" height="50" as="geometry" />
        </mxCell>
        <mxCell id="eVHg-SDSR93NSboe7xZ6-150" value="Model" style="html=1;" vertex="1" parent="1">
          <mxGeometry x="-760" y="520" width="110" height="50" as="geometry" />
        </mxCell>
        <mxCell id="eVHg-SDSR93NSboe7xZ6-151" value="Extends" style="endArrow=block;endSize=16;endFill=0;html=1;" edge="1" parent="1" source="eVHg-SDSR93NSboe7xZ6-150" target="eVHg-SDSR93NSboe7xZ6-149">
          <mxGeometry width="160" relative="1" as="geometry">
            <mxPoint x="-705" y="494" as="sourcePoint" />
            <mxPoint x="-85" y="344" as="targetPoint" />
          </mxGeometry>
        </mxCell>
        <mxCell id="eVHg-SDSR93NSboe7xZ6-152" value="Extends" style="endArrow=block;endSize=16;endFill=0;html=1;exitX=0.5;exitY=0;exitDx=0;exitDy=0;entryX=1;entryY=0.5;entryDx=0;entryDy=0;" edge="1" parent="1" source="eVHg-SDSR93NSboe7xZ6-140" target="eVHg-SDSR93NSboe7xZ6-150">
          <mxGeometry width="160" relative="1" as="geometry">
            <mxPoint x="-350" y="510" as="sourcePoint" />
            <mxPoint x="-190" y="510" as="targetPoint" />
          </mxGeometry>
        </mxCell>
        <mxCell id="eVHg-SDSR93NSboe7xZ6-155" value="Extends" style="endArrow=block;endSize=16;endFill=0;html=1;exitX=0.5;exitY=0;exitDx=0;exitDy=0;entryX=0.5;entryY=1;entryDx=0;entryDy=0;" edge="1" parent="1" source="eVHg-SDSR93NSboe7xZ6-149" target="eVHg-SDSR93NSboe7xZ6-148">
          <mxGeometry width="160" relative="1" as="geometry">
            <mxPoint x="-565" y="334" as="sourcePoint" />
            <mxPoint x="-405" y="334" as="targetPoint" />
          </mxGeometry>
        </mxCell>
        <mxCell id="eVHg-SDSR93NSboe7xZ6-156" value="App" style="swimlane;fontStyle=0;childLayout=stackLayout;horizontal=1;startSize=26;fillColor=none;horizontalStack=0;resizeParent=1;resizeParentMax=0;resizeLast=0;collapsible=1;marginBottom=0;" vertex="1" parent="1">
          <mxGeometry x="-510" y="266" width="180" height="216" as="geometry" />
        </mxCell>
        <mxCell id="eVHg-SDSR93NSboe7xZ6-164" value="+ createApp(): app&#xa;" style="text;strokeColor=none;fillColor=none;align=left;verticalAlign=top;spacingLeft=4;spacingRight=4;overflow=hidden;rotatable=0;points=[[0,0.5],[1,0.5]];portConstraint=eastwest;" vertex="1" parent="eVHg-SDSR93NSboe7xZ6-156">
          <mxGeometry y="26" width="180" height="26" as="geometry" />
        </mxCell>
        <mxCell id="eVHg-SDSR93NSboe7xZ6-165" value="" style="line;strokeWidth=1;fillColor=none;align=left;verticalAlign=middle;spacingTop=-1;spacingLeft=3;spacingRight=3;rotatable=0;labelPosition=right;points=[];portConstraint=eastwest;" vertex="1" parent="eVHg-SDSR93NSboe7xZ6-156">
          <mxGeometry y="52" width="180" height="8" as="geometry" />
        </mxCell>
        <mxCell id="eVHg-SDSR93NSboe7xZ6-157" value="+ mainpage(): render_template" style="text;strokeColor=none;fillColor=none;align=left;verticalAlign=top;spacingLeft=4;spacingRight=4;overflow=hidden;rotatable=0;points=[[0,0.5],[1,0.5]];portConstraint=eastwest;" vertex="1" parent="eVHg-SDSR93NSboe7xZ6-156">
          <mxGeometry y="60" width="180" height="26" as="geometry" />
        </mxCell>
        <mxCell id="eVHg-SDSR93NSboe7xZ6-158" value="+ login(): render_template" style="text;strokeColor=none;fillColor=none;align=left;verticalAlign=top;spacingLeft=4;spacingRight=4;overflow=hidden;rotatable=0;points=[[0,0.5],[1,0.5]];portConstraint=eastwest;" vertex="1" parent="eVHg-SDSR93NSboe7xZ6-156">
          <mxGeometry y="86" width="180" height="26" as="geometry" />
        </mxCell>
        <mxCell id="eVHg-SDSR93NSboe7xZ6-160" value="+ addBook(): render_template" style="text;strokeColor=none;fillColor=none;align=left;verticalAlign=top;spacingLeft=4;spacingRight=4;overflow=hidden;rotatable=0;points=[[0,0.5],[1,0.5]];portConstraint=eastwest;" vertex="1" parent="eVHg-SDSR93NSboe7xZ6-156">
          <mxGeometry y="112" width="180" height="26" as="geometry" />
        </mxCell>
        <mxCell id="eVHg-SDSR93NSboe7xZ6-159" value="+ register(): render_template&#xa;" style="text;strokeColor=none;fillColor=none;align=left;verticalAlign=top;spacingLeft=4;spacingRight=4;overflow=hidden;rotatable=0;points=[[0,0.5],[1,0.5]];portConstraint=eastwest;" vertex="1" parent="eVHg-SDSR93NSboe7xZ6-156">
          <mxGeometry y="138" width="180" height="26" as="geometry" />
        </mxCell>
        <mxCell id="eVHg-SDSR93NSboe7xZ6-161" value="+ profile(): render_template" style="text;strokeColor=none;fillColor=none;align=left;verticalAlign=top;spacingLeft=4;spacingRight=4;overflow=hidden;rotatable=0;points=[[0,0.5],[1,0.5]];portConstraint=eastwest;" vertex="1" parent="eVHg-SDSR93NSboe7xZ6-156">
          <mxGeometry y="164" width="180" height="26" as="geometry" />
        </mxCell>
        <mxCell id="eVHg-SDSR93NSboe7xZ6-162" value="+ mediator(JSON Obj): String" style="text;strokeColor=none;fillColor=none;align=left;verticalAlign=top;spacingLeft=4;spacingRight=4;overflow=hidden;rotatable=0;points=[[0,0.5],[1,0.5]];portConstraint=eastwest;" vertex="1" parent="eVHg-SDSR93NSboe7xZ6-156">
          <mxGeometry y="190" width="180" height="26" as="geometry" />
        </mxCell>
        <mxCell id="eVHg-SDSR93NSboe7xZ6-163" value="Extends" style="endArrow=block;endSize=16;endFill=0;html=1;exitX=0;exitY=0;exitDx=0;exitDy=0;entryX=1;entryY=0.5;entryDx=0;entryDy=0;" edge="1" parent="1" source="eVHg-SDSR93NSboe7xZ6-156" target="eVHg-SDSR93NSboe7xZ6-148">
          <mxGeometry width="160" relative="1" as="geometry">
            <mxPoint x="-476.0799999999999" y="262.38200000000006" as="sourcePoint" />
            <mxPoint x="-475" y="144" as="targetPoint" />
          </mxGeometry>
        </mxCell>
        <mxCell id="eVHg-SDSR93NSboe7xZ6-170" value="&lt;p style=&quot;margin: 0px ; margin-top: 4px ; text-align: center&quot;&gt;&lt;i&gt;&amp;lt;&amp;lt;Interface&amp;gt;&amp;gt;&lt;/i&gt;&lt;br&gt;&lt;b&gt;Mediator&lt;/b&gt;&lt;/p&gt;&lt;hr size=&quot;1&quot;&gt;&lt;p style=&quot;margin: 0px ; margin-left: 4px&quot;&gt;&lt;br&gt;&lt;/p&gt;&lt;hr size=&quot;1&quot;&gt;&lt;p style=&quot;margin: 0px ; margin-left: 4px&quot;&gt;+ function(String): JSON Obj&lt;br&gt;+ function(JSON Obj): String&lt;/p&gt;" style="verticalAlign=top;align=left;overflow=fill;fontSize=12;fontFamily=Helvetica;html=1;" vertex="1" parent="1">
          <mxGeometry x="-250" y="353.5" width="190" height="110" as="geometry" />
        </mxCell>
        <mxCell id="eVHg-SDSR93NSboe7xZ6-171" value="Use" style="endArrow=open;endSize=12;dashed=1;html=1;exitX=0;exitY=0.5;exitDx=0;exitDy=0;entryX=1;entryY=0.5;entryDx=0;entryDy=0;" edge="1" parent="1" source="augDifIEVUEMAhJTvY_Y-26" target="eVHg-SDSR93NSboe7xZ6-170">
          <mxGeometry width="160" relative="1" as="geometry">
            <mxPoint y="450" as="sourcePoint" />
            <mxPoint x="160" y="450" as="targetPoint" />
          </mxGeometry>
        </mxCell>
        <mxCell id="eVHg-SDSR93NSboe7xZ6-173" value="Use" style="endArrow=open;endSize=12;dashed=1;html=1;entryX=1;entryY=0.5;entryDx=0;entryDy=0;exitX=0;exitY=1;exitDx=0;exitDy=0;" edge="1" parent="1" source="eVHg-SDSR93NSboe7xZ6-170" target="eVHg-SDSR93NSboe7xZ6-162">
          <mxGeometry x="0.0579" y="-3" width="160" relative="1" as="geometry">
            <mxPoint x="-300" y="470" as="sourcePoint" />
            <mxPoint x="-40" y="450" as="targetPoint" />
            <Array as="points">
              <mxPoint x="-280" y="430" />
            </Array>
            <mxPoint y="1" as="offset" />
          </mxGeometry>
        </mxCell>
        <mxCell id="eVHg-SDSR93NSboe7xZ6-174" value="return" style="html=1;verticalAlign=bottom;endArrow=open;dashed=1;endSize=8;exitX=1;exitY=0.5;exitDx=0;exitDy=0;entryX=0;entryY=1;entryDx=0;entryDy=0;" edge="1" parent="1" source="eVHg-SDSR93NSboe7xZ6-162" target="eVHg-SDSR93NSboe7xZ6-170">
          <mxGeometry relative="1" as="geometry">
            <mxPoint x="-80" y="450" as="sourcePoint" />
            <mxPoint x="-290" y="370" as="targetPoint" />
          </mxGeometry>
        </mxCell>
        <mxCell id="eVHg-SDSR93NSboe7xZ6-177" value="HERE.com API" style="html=1;" vertex="1" parent="1">
          <mxGeometry x="434" y="40" width="110" height="50" as="geometry" />
        </mxCell>
        <mxCell id="eVHg-SDSR93NSboe7xZ6-178" value="Platform" style="swimlane;fontStyle=0;childLayout=stackLayout;horizontal=1;startSize=26;fillColor=none;horizontalStack=0;resizeParent=1;resizeParentMax=0;resizeLast=0;collapsible=1;marginBottom=0;" vertex="1" parent="1">
          <mxGeometry x="630" y="130" width="214" height="78" as="geometry" />
        </mxCell>
        <mxCell id="eVHg-SDSR93NSboe7xZ6-179" value="+ getSearchService(): geocoder" style="text;strokeColor=none;fillColor=none;align=left;verticalAlign=top;spacingLeft=4;spacingRight=4;overflow=hidden;rotatable=0;points=[[0,0.5],[1,0.5]];portConstraint=eastwest;" vertex="1" parent="eVHg-SDSR93NSboe7xZ6-178">
          <mxGeometry y="26" width="214" height="26" as="geometry" />
        </mxCell>
        <mxCell id="eVHg-SDSR93NSboe7xZ6-180" value="+ createDefaultLayers()" style="text;strokeColor=none;fillColor=none;align=left;verticalAlign=top;spacingLeft=4;spacingRight=4;overflow=hidden;rotatable=0;points=[[0,0.5],[1,0.5]];portConstraint=eastwest;" vertex="1" parent="eVHg-SDSR93NSboe7xZ6-178">
          <mxGeometry y="52" width="214" height="26" as="geometry" />
        </mxCell>
        <mxCell id="eVHg-SDSR93NSboe7xZ6-182" value="Geocoder" style="swimlane;fontStyle=0;childLayout=stackLayout;horizontal=1;startSize=26;fillColor=none;horizontalStack=0;resizeParent=1;resizeParentMax=0;resizeLast=0;collapsible=1;marginBottom=0;" vertex="1" parent="1">
          <mxGeometry x="612" y="250" width="250" height="78" as="geometry" />
        </mxCell>
        <mxCell id="eVHg-SDSR93NSboe7xZ6-183" value="+ reverseGeocode(geolocation): void" style="text;strokeColor=none;fillColor=none;align=left;verticalAlign=top;spacingLeft=4;spacingRight=4;overflow=hidden;rotatable=0;points=[[0,0.5],[1,0.5]];portConstraint=eastwest;" vertex="1" parent="eVHg-SDSR93NSboe7xZ6-182">
          <mxGeometry y="26" width="250" height="26" as="geometry" />
        </mxCell>
        <mxCell id="eVHg-SDSR93NSboe7xZ6-185" value="+ field: type" style="text;strokeColor=none;fillColor=none;align=left;verticalAlign=top;spacingLeft=4;spacingRight=4;overflow=hidden;rotatable=0;points=[[0,0.5],[1,0.5]];portConstraint=eastwest;" vertex="1" parent="eVHg-SDSR93NSboe7xZ6-182">
          <mxGeometry y="52" width="250" height="26" as="geometry" />
        </mxCell>
        <mxCell id="eVHg-SDSR93NSboe7xZ6-186" value="Window (Browser)" style="html=1;" vertex="1" parent="1">
          <mxGeometry x="985" y="52" width="110" height="50" as="geometry" />
        </mxCell>
        <mxCell id="eVHg-SDSR93NSboe7xZ6-187" value="Geolocation" style="swimlane;fontStyle=1;align=center;verticalAlign=top;childLayout=stackLayout;horizontal=1;startSize=26;horizontalStack=0;resizeParent=1;resizeParentMax=0;resizeLast=0;collapsible=1;marginBottom=0;" vertex="1" parent="1">
          <mxGeometry x="960" y="242" width="160" height="86" as="geometry" />
        </mxCell>
        <mxCell id="eVHg-SDSR93NSboe7xZ6-188" value="+ position: coords" style="text;strokeColor=none;fillColor=none;align=left;verticalAlign=top;spacingLeft=4;spacingRight=4;overflow=hidden;rotatable=0;points=[[0,0.5],[1,0.5]];portConstraint=eastwest;" vertex="1" parent="eVHg-SDSR93NSboe7xZ6-187">
          <mxGeometry y="26" width="160" height="26" as="geometry" />
        </mxCell>
        <mxCell id="eVHg-SDSR93NSboe7xZ6-189" value="" style="line;strokeWidth=1;fillColor=none;align=left;verticalAlign=middle;spacingTop=-1;spacingLeft=3;spacingRight=3;rotatable=0;labelPosition=right;points=[];portConstraint=eastwest;" vertex="1" parent="eVHg-SDSR93NSboe7xZ6-187">
          <mxGeometry y="52" width="160" height="8" as="geometry" />
        </mxCell>
        <mxCell id="eVHg-SDSR93NSboe7xZ6-190" value="+ watchPosition(): position" style="text;strokeColor=none;fillColor=none;align=left;verticalAlign=top;spacingLeft=4;spacingRight=4;overflow=hidden;rotatable=0;points=[[0,0.5],[1,0.5]];portConstraint=eastwest;" vertex="1" parent="eVHg-SDSR93NSboe7xZ6-187">
          <mxGeometry y="60" width="160" height="26" as="geometry" />
        </mxCell>
        <mxCell id="eVHg-SDSR93NSboe7xZ6-191" value="Navigator" style="html=1;" vertex="1" parent="1">
          <mxGeometry x="985" y="131" width="110" height="50" as="geometry" />
        </mxCell>
        <mxCell id="eVHg-SDSR93NSboe7xZ6-194" value="Extends" style="endArrow=block;endSize=16;endFill=0;html=1;entryX=0.5;entryY=1;entryDx=0;entryDy=0;" edge="1" parent="1" source="eVHg-SDSR93NSboe7xZ6-191" target="eVHg-SDSR93NSboe7xZ6-186">
          <mxGeometry width="160" relative="1" as="geometry">
            <mxPoint x="865" y="342" as="sourcePoint" />
            <mxPoint x="1025" y="342" as="targetPoint" />
          </mxGeometry>
        </mxCell>
        <mxCell id="eVHg-SDSR93NSboe7xZ6-195" value="Extends" style="endArrow=block;endSize=16;endFill=0;html=1;exitX=0.5;exitY=0;exitDx=0;exitDy=0;" edge="1" parent="1" source="eVHg-SDSR93NSboe7xZ6-187" target="eVHg-SDSR93NSboe7xZ6-191">
          <mxGeometry width="160" relative="1" as="geometry">
            <mxPoint x="865" y="342" as="sourcePoint" />
            <mxPoint x="1025" y="342" as="targetPoint" />
          </mxGeometry>
        </mxCell>
        <mxCell id="eVHg-SDSR93NSboe7xZ6-196" value="Extends" style="endArrow=block;endSize=16;endFill=0;html=1;exitX=0.5;exitY=0;exitDx=0;exitDy=0;" edge="1" parent="1" source="eVHg-SDSR93NSboe7xZ6-182" target="eVHg-SDSR93NSboe7xZ6-180">
          <mxGeometry width="160" relative="1" as="geometry">
            <mxPoint x="230" y="370" as="sourcePoint" />
            <mxPoint x="390" y="370" as="targetPoint" />
          </mxGeometry>
        </mxCell>
        <mxCell id="eVHg-SDSR93NSboe7xZ6-198" value="Extends" style="endArrow=block;endSize=16;endFill=0;html=1;exitX=0.5;exitY=0;exitDx=0;exitDy=0;" edge="1" parent="1" source="eVHg-SDSR93NSboe7xZ6-178" target="eVHg-SDSR93NSboe7xZ6-177">
          <mxGeometry width="160" relative="1" as="geometry">
            <mxPoint x="230" y="370" as="sourcePoint" />
            <mxPoint x="390" y="370" as="targetPoint" />
          </mxGeometry>
        </mxCell>
        <mxCell id="eVHg-SDSR93NSboe7xZ6-199" value="Geo.Point" style="swimlane;fontStyle=1;align=center;verticalAlign=top;childLayout=stackLayout;horizontal=1;startSize=26;horizontalStack=0;resizeParent=1;resizeParentMax=0;resizeLast=0;collapsible=1;marginBottom=0;" vertex="1" parent="1">
          <mxGeometry x="220" y="181" width="160" height="88" as="geometry" />
        </mxCell>
        <mxCell id="eVHg-SDSR93NSboe7xZ6-200" value="+ latitude: float&#xa;+ longitude: float" style="text;strokeColor=none;fillColor=none;align=left;verticalAlign=top;spacingLeft=4;spacingRight=4;overflow=hidden;rotatable=0;points=[[0,0.5],[1,0.5]];portConstraint=eastwest;" vertex="1" parent="eVHg-SDSR93NSboe7xZ6-199">
          <mxGeometry y="26" width="160" height="54" as="geometry" />
        </mxCell>
        <mxCell id="eVHg-SDSR93NSboe7xZ6-201" value="" style="line;strokeWidth=1;fillColor=none;align=left;verticalAlign=middle;spacingTop=-1;spacingLeft=3;spacingRight=3;rotatable=0;labelPosition=right;points=[];portConstraint=eastwest;" vertex="1" parent="eVHg-SDSR93NSboe7xZ6-199">
          <mxGeometry y="80" width="160" height="8" as="geometry" />
        </mxCell>
        <mxCell id="eVHg-SDSR93NSboe7xZ6-209" value="Ui" style="html=1;" vertex="1" parent="1">
          <mxGeometry x="690" y="40" width="110" height="50" as="geometry" />
        </mxCell>
        <mxCell id="eVHg-SDSR93NSboe7xZ6-210" value="Use" style="endArrow=open;endSize=12;dashed=1;html=1;exitX=0.998;exitY=0.027;exitDx=0;exitDy=0;exitPerimeter=0;entryX=0;entryY=0.5;entryDx=0;entryDy=0;" edge="1" parent="1" source="eVHg-SDSR93NSboe7xZ6-185" target="eVHg-SDSR93NSboe7xZ6-188">
          <mxGeometry width="160" relative="1" as="geometry">
            <mxPoint x="370" y="370" as="sourcePoint" />
            <mxPoint x="972" y="299" as="targetPoint" />
          </mxGeometry>
        </mxCell>
        <mxCell id="eVHg-SDSR93NSboe7xZ6-211" value="Extends" style="endArrow=block;endSize=16;endFill=0;html=1;exitX=0.5;exitY=0;exitDx=0;exitDy=0;entryX=0.5;entryY=1;entryDx=0;entryDy=0;" edge="1" parent="1" source="iKKJlmc9YYCkpeSJBuOX-5" target="eVHg-SDSR93NSboe7xZ6-177">
          <mxGeometry width="160" relative="1" as="geometry">
            <mxPoint x="370" y="490" as="sourcePoint" />
            <mxPoint x="530" y="490" as="targetPoint" />
          </mxGeometry>
        </mxCell>
        <mxCell id="eVHg-SDSR93NSboe7xZ6-212" value="Extends" style="endArrow=block;endSize=16;endFill=0;html=1;" edge="1" parent="1" source="eVHg-SDSR93NSboe7xZ6-209" target="eVHg-SDSR93NSboe7xZ6-177">
          <mxGeometry width="160" relative="1" as="geometry">
            <mxPoint x="370" y="300" as="sourcePoint" />
            <mxPoint x="530" y="300" as="targetPoint" />
          </mxGeometry>
        </mxCell>
        <mxCell id="eVHg-SDSR93NSboe7xZ6-216" value="Extends" style="endArrow=block;endSize=16;endFill=0;html=1;entryX=0.526;entryY=0.286;entryDx=0;entryDy=0;entryPerimeter=0;exitX=0.5;exitY=0;exitDx=0;exitDy=0;" edge="1" parent="1" source="iKKJlmc9YYCkpeSJBuOX-9" target="iKKJlmc9YYCkpeSJBuOX-7">
          <mxGeometry width="160" relative="1" as="geometry">
            <mxPoint x="530" y="380" as="sourcePoint" />
            <mxPoint x="690" y="380" as="targetPoint" />
          </mxGeometry>
        </mxCell>
        <mxCell id="eVHg-SDSR93NSboe7xZ6-217" value="Extends" style="endArrow=block;endSize=16;endFill=0;html=1;entryX=0.25;entryY=1;entryDx=0;entryDy=0;exitX=0.5;exitY=0;exitDx=0;exitDy=0;" edge="1" parent="1" source="eVHg-SDSR93NSboe7xZ6-199" target="eVHg-SDSR93NSboe7xZ6-177">
          <mxGeometry width="160" relative="1" as="geometry">
            <mxPoint x="280" y="60" as="sourcePoint" />
            <mxPoint x="440" y="60" as="targetPoint" />
          </mxGeometry>
        </mxCell>
        <mxCell id="eVHg-SDSR93NSboe7xZ6-218" value="MarkerService" style="swimlane;fontStyle=0;childLayout=stackLayout;horizontal=1;startSize=26;fillColor=none;horizontalStack=0;resizeParent=1;resizeParentMax=0;resizeLast=0;collapsible=1;marginBottom=0;" vertex="1" parent="1">
          <mxGeometry x="314" y="593" width="360" height="78" as="geometry" />
        </mxCell>
        <mxCell id="eVHg-SDSR93NSboe7xZ6-219" value="+ addInfoBubble(map): void" style="text;strokeColor=none;fillColor=none;align=left;verticalAlign=top;spacingLeft=4;spacingRight=4;overflow=hidden;rotatable=0;points=[[0,0.5],[1,0.5]];portConstraint=eastwest;" vertex="1" parent="eVHg-SDSR93NSboe7xZ6-218">
          <mxGeometry y="26" width="360" height="26" as="geometry" />
        </mxCell>
        <mxCell id="eVHg-SDSR93NSboe7xZ6-220" value="+ addMarkerToGroup(group, icon, Geo.Point, String): void" style="text;strokeColor=none;fillColor=none;align=left;verticalAlign=top;spacingLeft=4;spacingRight=4;overflow=hidden;rotatable=0;points=[[0,0.5],[1,0.5]];portConstraint=eastwest;" vertex="1" parent="eVHg-SDSR93NSboe7xZ6-218">
          <mxGeometry y="52" width="360" height="26" as="geometry" />
        </mxCell>
      </root>
    </mxGraphModel>
  </diagram>
</mxfile>
